<?xml version="1.0" encoding="UTF-8"?>
<svg id="Layer_1" data-name="Layer 1" xmlns="http://www.w3.org/2000/svg" xmlns:xlink="http://www.w3.org/1999/xlink" viewBox="0 0 1815.4 336.68">
  <defs>
    <style>
      .cls-1 {
        fill: none;
      }

      .cls-2 {
        fill: #1d1d1b;
      }

      .cls-3 {
        clip-path: url(#clippath);
      }
    </style>
    <clipPath id="clippath">
      <rect class="cls-1" x="82.47" y="63.21" width="722.26" height="211.37"/>
    </clipPath>
  </defs>
  <polygon class="cls-2" points="82.47 98.79 82.47 239.09 185.36 239.09 185.36 214.49 109.13 214.49 109.13 98.79 82.47 98.79"/>
  <g class="cls-3">
    <path class="cls-2" d="M339.73,239.09c-17.58,0-32.08-4.96-43.59-14.97-11.41-9.92-17.21-21.98-17.21-36.2v-89.14h26.47v81.56c0,10.85,3.27,19.08,10.01,24.41,6.45,5.14,14.59,7.76,24.32,7.76s17.86-2.62,24.32-7.76c6.73-5.33,10.01-13.56,10.01-24.41v-81.56h26.47v89.14c0,14.22-5.71,26.19-17.21,36.2-11.51,10.01-26,14.97-43.59,14.97"/>
    <polygon class="cls-2" points="632.85 155 589.26 203.55 545.67 155 545.67 239.09 519.11 239.09 519.11 98.79 527.15 98.79 589.26 169.41 651.46 98.79 659.5 98.79 659.5 239.09 632.94 239.09 632.85 155"/>
    <rect class="cls-2" x="778.08" y="98.7" width="26.66" height="140.4"/>
    <rect class="cls-2" x="82.47" y="63.21" width="722.26" height="8.18"/>
    <rect class="cls-2" x="82.47" y="266.4" width="722.26" height="8.18"/>
  </g>
  <g>
    <path d="M949.38,98.32h11.96l59.34,138h-18.86l-16.56-38.64h-60.72l-16.56,38.64h-17.94l59.34-138ZM979.05,182.73l-24.15-56.81-24.15,56.81h48.3Z"/>
    <path d="M1031.72,98.32h18.4v138h-18.4V98.32Z"/>
    <path d="M1114.29,98.32h83.49v15.41h-65.09v42.09h53.59v15.41h-53.59v65.09h-18.4V98.32Z"/>
    <path d="M1195.48,186.64c0-28.98,20.01-52.44,47.38-52.44,16.33,0,30.82,8.05,39.1,20.7l.69-17.94h15.18v99.36h-15.18l-.69-17.94c-8.28,12.65-22.77,20.7-39.1,20.7-27.37,0-47.38-23.46-47.38-52.44ZM1281.5,186.64c0-23.92-15.41-38.41-34.27-38.41s-34.27,14.49-34.27,38.41,15.41,38.41,34.27,38.41,34.27-14.49,34.27-38.41Z"/>
    <path d="M1311.63,186.64c0-31.05,21.62-52.44,51.75-52.44,13.11,0,23.46,2.3,34.73,10.12v15.87c-9.43-8.74-21.62-11.73-33.12-11.73-21.39,0-35.88,16.33-35.88,38.18s14.49,38.18,35.88,38.18c11.5,0,23.69-2.99,33.12-11.73v15.87c-11.27,7.82-21.62,10.12-34.73,10.12-30.13,0-51.75-21.39-51.75-52.44Z"/>
    <path d="M1428,148.92h-22.31v-11.96h22.31v-27.14h17.48v27.14h22.54v11.96h-22.54v87.4h-17.48v-87.4Z"/>
    <path d="M1470.09,186.64c0-28.98,22.08-53.36,54.28-53.36s54.05,24.38,54.05,53.36-22.08,53.36-54.05,53.36-54.28-24.15-54.28-53.36ZM1560.94,186.64c0-21.62-14.03-39.33-36.57-39.33s-36.8,17.71-36.8,39.33,14.26,39.33,36.8,39.33,36.57-17.48,36.57-39.33Z"/>
    <path d="M1590.84,136.96h15.18l1.15,19.09c6.44-12.19,21.85-21.85,38.64-21.85v18.86c-18.86-3.45-37.49,7.36-37.49,24.15v59.11h-17.48v-99.36Z"/>
    <path d="M1691.8,230.8l-41.17-93.84h17.94l32.2,74.52,31.97-74.52h17.02l-63.25,144.21h-17.25l22.54-50.37Z"/>
  </g>
</svg>